<?xml version="1.0" encoding="utf-8"?>
<!-- Generator: Adobe Illustrator 26.1.0, SVG Export Plug-In . SVG Version: 6.00 Build 0)  -->
<svg version="1.1" xmlns="http://www.w3.org/2000/svg" xmlns:xlink="http://www.w3.org/1999/xlink" x="0px" y="0px"
	 viewBox="0 0 145.3 31.3" style="enable-background:new 0 0 145.3 31.3;" xml:space="preserve">
<style type="text/css">
	.st0{fill:#FFFFFF;}
	.st1{font-family:'Heavitas';}
	.st2{font-size:12px;}
	.st3{fill:none;stroke:#FDFDFD;stroke-width:0.5;stroke-miterlimit:10;}
	.st4{stroke:#FFFFFF;stroke-miterlimit:10;}
	.st5{fill:#382C28;}
	.st6{fill:#F59E11;}
	.st7{fill:#E52521;}
	.st8{fill:#010202;}
	.st9{fill:#769CD2;}
</style>
<g id="Layer_2">
	<text transform="matrix(0.9632 0 0 1 20.9565 23.1739)" class="st0 st1 st2">SHROUDBREAKERS</text>
	<rect x="9.38" y="12.55" class="st3" width="133.57" height="12.17"/>
</g>
<g id="Layer_3">
	<g id="Layer_4">
		<polygon class="st4" points="4.44,2.92 8.04,2.33 8.37,4.48 11.14,4.19 10.53,7.68 16.1,9.52 14.98,11.67 15.59,11.98 
			14.12,15.21 13.39,14.95 12.98,15.77 18.78,16.78 18.57,17.97 13.58,17.03 15.75,21.57 16.2,21.57 17.53,23.17 18.75,22.05 
			19.74,22.29 18.03,24.68 17.26,24.7 17.53,25.27 17.91,25.35 17.57,27.14 15.55,26.62 7.96,29.18 7.9,28.22 7.43,28.24 4,27.32 
			4.62,26.12 7.29,26.96 7.35,23.87 7.63,23.79 7.4,20.22 6.86,20.26 6.74,19.09 3.88,22.01 2.92,20.98 7.06,17.42 7.23,17.42 
			7.18,16.61 6.51,16.16 6.02,16.88 2.97,14.92 3.54,14.14 2.41,13.37 5.09,9.35 2.34,6.15 5.18,5.3 		"/>
	</g>
	<g>
		<path class="st5" d="M15.1,21.88l0.7-0.2l-1.39-2.89l-1.52,0.33l-1.19-2.39l1.26-0.96l-0.04-0.08l0.42-0.82l-1.03-0.44l1.8-3.2
			l0.86,0.44l1.06-2.07l-5.65-1.85l-0.48,2.55l-3.36,0.75l-1.46-1.7l-2.68,4.02l1.12,0.76l0.37-0.51l2.97,1.99l-0.37,0.54l0.67,0.46
			l0.05,0.81l1.78,0.02l-0.04,2.64L7.4,20.22l0.22,3.57l0.69-0.21l0.33,4.61L7.9,28.22l0.06,0.96l7.59-2.56l-3.93-1.03l-2.18-2.53
			l0.62-2.59l2.17-0.51l1.98,2.32l-0.58,2.14l3.9,0.86l-0.27-0.56l-0.62,0.02L15.1,21.88z M11.45,10.41l1.94,1.17l-1.63,2.2
			l-1.36-1.27L11.45,10.41z M7.24,14.99l-1.99-1.46l1.18-2.05l1.83,1.47L7.24,14.99z M8.68,16.82l0.1-0.54l0.1-0.02l0,0l-0.15-0.36
			l-0.19,0.04l-0.26-1.48l2.51-0.48l0.25,1.43l-0.18,0.04l0.04,0.34l-0.34,0.08l-0.44-0.27l0,0l0.07,0.35l-0.4,0.09l-0.24-0.32
			l-0.33,0.06l0,0l0,0l0.14,0.35l1.79-0.41l0.48,0.44L8.68,16.82z M10.79,19.22l-1.17-0.97l0.49-1.46l1.33,1.4L10.79,19.22z"/>
		<polygon class="st6" points="9.01,17.44 7.23,17.42 7.06,17.42 2.92,20.98 3.88,22.01 6.74,19.09 6.86,20.26 7.4,20.22 
			8.97,20.09 		"/>
		<path class="st6" d="M9.91,10.31l0.48-2.55l0.65-3.46L8.39,4.57L8,2.51L4.6,3.08L5.18,5.3L2.34,6.15l2.76,3.2l1.46,1.7L9.91,10.31
			z M5.68,3.73l1.79-0.3l0.57,2.53L6.5,6.24L5.68,3.73z"/>
		<polygon class="st6" points="3.91,13.62 3.54,14.14 2.97,14.92 6.02,16.88 6.51,16.16 6.88,15.61 		"/>
		<polygon class="st6" points="12.32,14.43 13.35,14.88 14.12,15.21 15.59,11.98 14.98,11.67 14.12,11.23 		"/>
		<path class="st6" d="M14.21,22.27l-1.98-2.32l-2.17,0.51l-0.62,2.59l2.18,2.53l3.93,1.03l2.02,0.53l0.34-1.8l-0.38-0.08l-3.9-0.86
			L14.21,22.27z M12.05,23.85l-1.53-0.83l0.85-1.66l1.5,1.21L12.05,23.85z"/>
		<polygon class="st6" points="19.74,22.29 18.75,22.05 17.55,23.36 16.2,21.57 15.81,21.68 15.1,21.88 16.64,24.72 17.26,24.7 
			18.03,24.68 		"/>
		<polygon class="st6" points="9.24,15.79 9.24,15.79 10.14,15.6 10.87,15.44 11.05,15.41 10.8,13.98 8.29,14.45 8.55,15.93 
			8.74,15.89 9.24,15.79 		"/>
		<polygon class="st6" points="11.16,15.73 9.38,16.14 9.39,16.17 8.89,16.25 8.78,16.28 8.68,16.82 11.64,16.17 		"/>
		<polygon class="st7" points="5.25,13.53 7.24,14.99 8.26,12.95 6.43,11.48 		"/>
		<polygon class="st7" points="13.39,11.58 11.45,10.41 10.4,12.52 11.76,13.78 		"/>
		<polygon class="st8" points="10.14,15.6 10.57,15.87 10.91,15.79 10.87,15.44 10.14,15.6 		"/>
		<polygon class="st8" points="9.38,16.14 9.24,15.79 9.24,15.79 8.74,15.89 8.89,16.25 8.89,16.25 9.39,16.17 		"/>
		<polygon class="st8" points="9.57,15.72 9.81,16.04 10.21,15.95 10.14,15.6 9.24,15.79 		"/>
		<polygon class="st8" points="9.24,15.79 9.24,15.79 9.24,15.79 		"/>
		<polygon class="st8" points="10.52,23.02 12.05,23.85 12.87,22.57 11.37,21.36 		"/>
		<polygon class="st8" points="9.62,18.25 10.79,19.22 11.43,18.19 10.11,16.78 		"/>
		<polygon class="st9" points="7.46,3.43 5.68,3.73 6.5,6.24 8.04,5.96 		"/>
		<polygon class="st6" points="12.9,19.13 14.42,18.79 14.43,18.79 13.58,17.03 18.57,17.97 18.78,16.87 12.98,15.77 12.97,15.78 
			11.71,16.74 		"/>
		<polygon class="st6" points="8.31,23.58 7.63,23.79 7.35,23.87 7.29,27.06 4.62,26.12 4,27.32 7.43,28.24 7.9,28.22 8.64,28.19 		
			"/>
	</g>
</g>
</svg>
