<?xml version="1.0" encoding="utf-8"?>
<!-- Generator: Adobe Illustrator 26.1.0, SVG Export Plug-In . SVG Version: 6.00 Build 0)  -->
<svg version="1.1" xmlns="http://www.w3.org/2000/svg" xmlns:xlink="http://www.w3.org/1999/xlink" x="0px" y="0px"
	 viewBox="0 0 918.26 511.83" style="enable-background:new 0 0 918.26 511.83;" xml:space="preserve">
<style type="text/css">
	.st0{fill:#759CD2;}
	.st1{fill:#FFFFFF;}
</style>
<g id="Layer_3">
</g>
<g id="border">
	<g>
		<polygon class="st0" points="390.24,456.61 57.02,456.61 57.02,231.91 72.27,208.92 77.48,214.87 91.17,188.61 125.61,217.23 
			103.7,172.17 106.04,152.61 120.13,165.13 112.69,124.43 77.09,171.39 57.02,191.09 57.02,101.22 173.6,101.22 159.72,116.39 
			142.83,128.35 152.61,151.83 129.05,131.48 136.11,147.75 156.26,174 220.98,223.41 194.09,174.91 187.08,153.39 215.89,174.91 
			208.04,138.6 212.86,137.65 208.79,99.88 223.04,68.87 218.08,36.6 193.49,76.17 31.98,76.17 31.98,481.65 419.54,481.65 
			419.54,364.67 390.24,364.67 		"/>
		<polygon class="st0" points="254.1,76.17 242.09,62.61 286.68,138.52 356.96,185.15 336.52,157.7 329.67,138.91 322.85,144.45 
			326.35,154.96 314.18,144 276.28,101.22 390.24,101.22 390.24,175.36 350.22,155.35 390.24,195.26 419.54,195.26 419.54,76.17 		
			"/>
	</g>
</g>
<g id="text">
	<g>
		<path class="st1" d="M157.86,256.67c6.26,3.79,11.11,9.17,14.57,16.13c3.46,6.97,5.19,15.01,5.19,24.12c0,9-1.67,16.9-5.02,23.71
			c-3.35,6.81-8.12,12.08-14.32,15.8c-6.2,3.73-13.36,5.6-21.48,5.6c-5.6,0-10.68-1.07-15.23-3.21c-4.56-2.14-8.42-5.24-11.61-9.3
			v43.46h-29.3V251.98h29.3v11.52c6.47-8.34,15.2-12.51,26.18-12.51C144.36,250.99,151.6,252.88,157.86,256.67z M142.8,312.23
			c3.57-4.06,5.35-9.38,5.35-15.97c0-6.58-1.79-11.94-5.35-16.05c-3.57-4.12-8.21-6.17-13.91-6.17c-5.6,0-10.15,2.06-13.67,6.17
			c-3.51,4.12-5.27,9.47-5.27,16.05c0,6.59,1.75,11.91,5.27,15.97c3.51,4.06,8.07,6.09,13.67,6.09
			C134.59,318.33,139.23,316.3,142.8,312.23z"/>
		<path class="st1" d="M266.93,263.83c7.79,8.56,11.69,20.31,11.69,35.23c0,2.31-0.06,4.06-0.17,5.27h-61.9
			c1.42,5.05,3.89,8.92,7.41,11.61c3.51,2.69,7.79,4.03,12.84,4.03c3.84,0,7.54-0.77,11.11-2.3c3.57-1.54,6.83-3.79,9.8-6.75
			l15.31,15.31c-4.61,5.16-10.18,9.08-16.71,11.77c-6.53,2.69-13.91,4.03-22.14,4.03c-9.55,0-17.89-1.86-25.02-5.6
			c-7.14-3.73-12.59-9-16.38-15.8c-3.79-6.8-5.68-14.71-5.68-23.71c0-9.11,1.92-17.15,5.76-24.12c3.84-6.97,9.27-12.35,16.3-16.13
			c7.02-3.79,15.15-5.68,24.37-5.68C248,250.99,259.14,255.27,266.93,263.83z M250.14,288.69c0-5.16-1.51-9.3-4.53-12.43
			c-3.02-3.13-7-4.69-11.94-4.69c-4.61,0-8.48,1.54-11.61,4.61c-3.13,3.07-5.19,7.24-6.17,12.51H250.14z"/>
		<path class="st1" d="M362.42,259.3c6.8,5.65,10.26,13.58,10.37,23.79v57.95h-28.81V331c-5.93,7.57-14.87,11.36-26.83,11.36
			c-9.44,0-16.88-2.55-22.31-7.66c-5.43-5.1-8.15-11.83-8.15-20.17c0-8.45,2.94-15.04,8.81-19.76c5.87-4.72,14.29-7.13,25.27-7.24
			h23.21v-0.99c0-4.28-1.46-7.57-4.36-9.88c-2.91-2.3-7.11-3.46-12.59-3.46c-3.73,0-7.93,0.6-12.59,1.81
			c-4.67,1.21-9.36,2.96-14.08,5.27l-8.07-19.76c7.24-3.29,14.18-5.73,20.83-7.33c6.64-1.59,13.53-2.39,20.66-2.39
			C346.06,250.83,355.61,253.65,362.42,259.3z M337.72,319.23c3.29-2.14,5.38-4.91,6.26-8.31v-7.74h-17.45
			c-8.23,0-12.35,3.07-12.35,9.22c0,3.07,1.07,5.51,3.21,7.33c2.14,1.81,5.08,2.72,8.81,2.72
			C330.59,322.44,334.43,321.37,337.72,319.23z"/>
		<path class="st1" d="M447.36,341.05l-18.77-33.59l-9.05,9.38v24.2h-29.3V218.89h29.3v63.22l28.48-30.13h33.26l-32.6,34.41
			l33.26,54.66H447.36z"/>
		<path class="st1" d="M530.83,243.42c-1.87,1.65-2.8,4.01-2.8,7.08v5.76h19.76v19.43h-19.76v65.36H498.9v-65.36h-12.02v-19.43
			h12.02v-8.23c0-9.44,3.15-16.88,9.47-22.31c6.31-5.43,14.41-8.15,24.28-8.15c6.47,0,12.84,1.15,19.1,3.46l-3.79,22.23
			c-4.39-1.54-7.68-2.3-9.88-2.3C535.11,240.95,532.7,241.77,530.83,243.42z"/>
		<path class="st1" d="M589.47,215.35c2.91,2.91,4.36,6.67,4.36,11.28c0,4.5-1.46,8.23-4.36,11.2c-2.91,2.96-6.61,4.44-11.11,4.44
			c-4.5,0-8.21-1.48-11.11-4.44c-2.91-2.96-4.36-6.69-4.36-11.2c0-4.61,1.45-8.37,4.36-11.28c2.91-2.91,6.61-4.36,11.11-4.36
			C582.86,210.98,586.56,212.44,589.47,215.35z M564.04,251.98h29.14v89.07h-29.14V251.98z"/>
		<path class="st1" d="M692.58,260.05c5.87,6.15,8.81,14.43,8.81,24.86v56.14h-29.14V293.3c0-5.05-1.37-9.03-4.12-11.94
			c-2.74-2.91-6.42-4.36-11.03-4.36c-4.83,0.11-8.81,1.7-11.94,4.77c-3.13,3.07-4.97,7.14-5.52,12.18v47.09h-29.3v-89.07h29.3v14.49
			c3.18-5.16,7.27-9.05,12.27-11.69c4.99-2.63,10.73-3.95,17.2-3.95C678.89,250.83,686.71,253.9,692.58,260.05z"/>
		<path class="st1" d="M811.2,218.89v122.16H781.9v-11.52c-3.07,4.17-6.83,7.33-11.28,9.47c-4.45,2.14-9.47,3.21-15.06,3.21
			c-8.23,0-15.48-1.92-21.73-5.76c-6.26-3.84-11.11-9.25-14.57-16.22c-3.46-6.97-5.19-15.01-5.19-24.12c0-9,1.7-16.9,5.1-23.71
			c3.4-6.8,8.18-12.07,14.32-15.81c6.15-3.73,13.28-5.6,21.4-5.6c5.71,0,10.84,1.1,15.39,3.29c4.55,2.2,8.42,5.32,11.61,9.38v-44.78
			H811.2z M776.63,312.98c3.51-4.12,5.27-9.47,5.27-16.05c0-6.69-1.76-12.07-5.27-16.13c-3.51-4.06-8.12-6.09-13.83-6.09
			c-5.71,0-10.35,2.06-13.91,6.17c-3.57,4.12-5.35,9.47-5.35,16.05s1.78,11.94,5.35,16.05c3.57,4.12,8.2,6.17,13.91,6.17
			C768.51,319.15,773.12,317.09,776.63,312.98z"/>
		<path class="st1" d="M870.44,254.94c4.88-2.74,10.45-4.12,16.71-4.12v26.84c-0.99-0.11-2.47-0.16-4.45-0.16
			c-6.91,0-12.51,1.62-16.79,4.86c-4.28,3.24-6.75,7.66-7.41,13.25v45.44h-29.3v-89.07h29.3v14.82
			C861.57,261.64,865.55,257.69,870.44,254.94z"/>
	</g>
</g>
</svg>
